# 3ds Max Wavefront OBJ Exporter v0.97b - (c)2007 guruware
# File Created: 16.01.2020 11:33:51

#
# object Cylinder001
#

v  1.3783 0.0000 0.7957
v  0.7957 0.0000 1.3783
v  -0.0000 0.0000 1.5915
v  -0.7957 0.0000 1.3783
v  -1.3783 0.0000 0.7957
v  -1.5915 0.0000 -0.0000
v  -1.3783 0.0000 -0.7957
v  -0.7957 0.0000 -1.3783
v  -0.0000 0.0000 -1.5915
v  0.7957 0.0000 -1.3783
v  1.3783 0.0000 -0.7957
v  1.5915 0.0000 -0.0000
v  1.4414 0.2236 -0.8322
v  1.6644 0.2236 -0.0000
v  0.8322 0.2236 -1.4414
v  -0.0000 0.2236 -1.6644
v  -0.8322 0.2236 -1.4414
v  -1.4414 0.2236 -0.8322
v  -1.6644 0.2236 -0.0000
v  -1.4414 0.2236 0.8322
v  -0.8322 0.2236 1.4414
v  -0.0000 0.2236 1.6644
v  0.8322 0.2236 1.4414
v  1.4414 0.2236 0.8322
v  0.3763 4.0000 0.2173
v  0.4345 4.0000 -0.0000
v  0.3763 4.0000 -0.2173
v  0.2173 4.0000 -0.3763
v  -0.0000 4.0000 -0.4345
v  -0.2173 4.0000 -0.3763
v  -0.3763 4.0000 -0.2173
v  -0.4345 4.0000 -0.0000
v  -0.3763 4.0000 0.2173
v  -0.2173 4.0000 0.3763
v  -0.0000 4.0000 0.4345
v  0.2173 4.0000 0.3763
v  0.9432 2.1296 -0.5445
v  1.0891 2.1296 -0.0000
v  0.5445 2.1296 -0.9432
v  -0.0000 2.1296 -1.0891
v  -0.5445 2.1296 -0.9432
v  -0.9432 2.1296 -0.5445
v  -1.0891 2.1296 -0.0000
v  -0.9432 2.1296 0.5445
v  -0.5445 2.1296 0.9432
v  -0.0000 2.1296 1.0891
v  0.5445 2.1296 0.9432
v  0.9432 2.1296 0.5445
# 48 vertices

vn 0.5426 -0.7794 0.3133
vn 0.3133 -0.7794 0.5426
vn -0.0000 -0.7794 0.6265
vn -0.3133 -0.7794 0.5426
vn -0.5426 -0.7794 0.3133
vn -0.6265 -0.7794 -0.0000
vn -0.5426 -0.7794 -0.3133
vn -0.3133 -0.7794 -0.5426
vn 0.0000 -0.7794 -0.6265
vn 0.3133 -0.7794 -0.5426
vn 0.5426 -0.7794 -0.3133
vn 0.6265 -0.7794 0.0000
vn 0.8660 -0.0117 -0.5000
vn 0.9999 -0.0117 0.0000
vn 0.5000 -0.0117 -0.8660
vn -0.0000 -0.0117 -0.9999
vn -0.5000 -0.0117 -0.8660
vn -0.8660 -0.0117 -0.5000
vn -0.9999 -0.0117 -0.0000
vn -0.8660 -0.0117 0.5000
vn -0.5000 -0.0117 0.8660
vn -0.0000 -0.0117 0.9999
vn 0.5000 -0.0117 0.8660
vn 0.8660 -0.0117 0.5000
vn 0.5341 0.7872 0.3084
vn 0.6167 0.7872 0.0000
vn 0.5341 0.7872 -0.3084
vn 0.3084 0.7872 -0.5341
vn -0.0000 0.7872 -0.6167
vn -0.3084 0.7872 -0.5341
vn -0.5341 0.7872 -0.3084
vn -0.6167 0.7872 -0.0000
vn -0.5341 0.7872 0.3084
vn -0.3084 0.7872 0.5341
vn -0.0000 0.7872 0.6167
vn 0.3084 0.7872 0.5341
vn 0.8110 0.3507 -0.4682
vn 0.9365 0.3507 0.0000
vn 0.4682 0.3507 -0.8110
vn -0.0000 0.3507 -0.9365
vn -0.4682 0.3507 -0.8110
vn -0.8110 0.3507 -0.4682
vn -0.9365 0.3507 -0.0000
vn -0.8110 0.3507 0.4682
vn -0.4682 0.3507 0.8110
vn -0.0000 0.3507 0.9365
vn 0.4682 0.3507 0.8110
vn 0.8110 0.3507 0.4682
# 48 vertex normals

vt 1.9189 0.5834 0.0000
vt 1.9822 0.6887 0.0000
vt 1.9843 0.8115 0.0000
vt 1.9248 0.9189 0.0000
vt 1.8195 0.9822 0.0000
vt 1.6967 0.9843 0.0000
vt 1.5893 0.9248 0.0000
vt 1.5260 0.8195 0.0000
vt 1.5239 0.6967 0.0000
vt 1.5834 0.5893 0.0000
vt 1.6887 0.5260 0.0000
vt 1.8115 0.5239 0.0000
vt 1.5221 0.6838 0.0000
vt 1.5221 0.8025 0.0000
vt 1.4932 0.8079 0.0000
vt 1.4932 0.6838 0.0000
vt 1.2057 0.4083 0.0000
vt 1.2057 0.2855 0.0000
vt 1.2365 0.2827 0.0000
vt 1.2365 0.4112 0.0000
vt 1.2519 0.2432 0.0000
vt 1.2519 0.1246 0.0000
vt 1.2808 0.1246 0.0000
vt 1.2808 0.2487 0.0000
vt 1.2519 0.0059 0.0000
vt 1.2808 0.0005 0.0000
vt 1.8551 0.0056 0.0000
vt 1.9779 0.0056 0.0000
vt 1.9807 0.0363 0.0000
vt 1.8522 0.0363 0.0000
vt 1.0059 0.0056 0.0000
vt 1.1246 0.0056 0.0000
vt 1.1246 0.0345 0.0000
vt 1.0005 0.0345 0.0000
vt 1.2432 0.0056 0.0000
vt 1.2487 0.0345 0.0000
vt 1.8804 0.4340 0.0000
vt 1.7576 0.4340 0.0000
vt 1.7548 0.4033 0.0000
vt 1.8832 0.4033 0.0000
vt 1.0056 0.9769 0.0000
vt 1.0056 0.8583 0.0000
vt 1.0345 0.8583 0.0000
vt 1.0345 0.9824 0.0000
vt 1.0056 0.7397 0.0000
vt 1.0345 0.7342 0.0000
vt 1.7419 0.2034 0.0000
vt 1.7419 0.3262 0.0000
vt 1.7112 0.3291 0.0000
vt 1.7112 0.2006 0.0000
vt 1.5221 0.5652 0.0000
vt 1.4932 0.5598 0.0000
vt 1.6393 0.4222 0.0000
vt 1.6387 0.4558 0.0000
vt 1.6215 0.4845 0.0000
vt 1.5921 0.5008 0.0000
vt 1.5586 0.5002 0.0000
vt 1.5299 0.4829 0.0000
vt 1.5136 0.4536 0.0000
vt 1.5142 0.4201 0.0000
vt 1.5315 0.3913 0.0000
vt 1.5608 0.3751 0.0000
vt 1.5943 0.3756 0.0000
vt 1.6231 0.3929 0.0000
vt 1.2471 0.7650 0.0000
vt 1.2471 0.6838 0.0000
vt 1.4394 0.3049 0.0000
vt 1.4394 0.3890 0.0000
vt 1.5269 0.1246 0.0000
vt 1.5269 0.2058 0.0000
vt 1.5269 0.0434 0.0000
vt 1.9585 0.2393 0.0000
vt 1.8744 0.2393 0.0000
vt 1.1246 0.2806 0.0000
vt 1.0434 0.2806 0.0000
vt 1.2058 0.2806 0.0000
vt 1.7770 0.2004 0.0000
vt 1.8610 0.2004 0.0000
vt 1.2806 0.8583 0.0000
vt 1.2806 0.9395 0.0000
vt 1.2806 0.7771 0.0000
vt 1.5082 0.3069 0.0000
vt 1.5082 0.2228 0.0000
vt 1.2471 0.6027 0.0000
vt 1.0056 0.7162 0.0000
vt 1.0056 0.6838 0.0000
vt 1.6341 0.3302 0.0000
vt 1.6341 0.3637 0.0000
vt 1.7683 0.1246 0.0000
vt 1.7683 0.1570 0.0000
vt 1.7683 0.0922 0.0000
vt 1.9332 0.4340 0.0000
vt 1.8997 0.4340 0.0000
vt 1.1246 0.5221 0.0000
vt 1.0922 0.5221 0.0000
vt 1.1570 0.5221 0.0000
vt 1.8022 0.0056 0.0000
vt 1.8357 0.0056 0.0000
vt 1.5221 0.8583 0.0000
vt 1.5221 0.8907 0.0000
vt 1.5221 0.8259 0.0000
vt 1.3135 0.2816 0.0000
vt 1.3135 0.2481 0.0000
vt 1.0056 0.6515 0.0000
# 104 texture coords

o Cylinder001
g Cylinder001
s 1
f 1/1/1 2/2/2 3/3/3 4/4/4 5/5/5 6/6/6 7/7/7 8/8/8 9/9/9 10/10/10 11/11/11 12/12/12 
s 8
f 12/13/12 11/14/11 13/15/13 14/16/14 
f 11/17/11 10/18/10 15/19/15 13/20/13 
f 10/21/10 9/22/9 16/23/16 15/24/15 
f 9/22/9 8/25/8 17/26/17 16/23/16 
f 8/27/8 7/28/7 18/29/18 17/30/17 
f 7/31/7 6/32/6 19/33/19 18/34/18 
f 6/32/6 5/35/5 20/36/20 19/33/19 
f 5/37/5 4/38/4 21/39/21 20/40/20 
f 4/41/4 3/42/3 22/43/22 21/44/21 
f 3/42/3 2/45/2 23/46/23 22/43/22 
f 2/47/2 1/48/1 24/49/24 23/50/23 
f 1/51/1 12/13/12 14/16/14 24/52/24 
s 1
f 25/53/25 26/54/26 27/55/27 28/56/28 29/57/29 30/58/30 31/59/31 32/60/32 33/61/33 34/62/34 35/63/35 36/64/36 
s 8
f 13/15/13 37/65/37 38/66/38 14/16/14 
f 15/19/15 39/67/39 37/68/37 13/20/13 
f 16/23/16 40/69/40 39/70/39 15/24/15 
f 17/26/17 41/71/41 40/69/40 16/23/16 
f 18/29/18 42/72/42 41/73/41 17/30/17 
f 19/33/19 43/74/43 42/75/42 18/34/18 
f 20/36/20 44/76/44 43/74/43 19/33/19 
f 21/39/21 45/77/45 44/78/44 20/40/20 
f 22/43/22 46/79/46 45/80/45 21/44/21 
f 23/46/23 47/81/47 46/79/46 22/43/22 
f 24/49/24 48/82/48 47/83/47 23/50/23 
f 14/16/14 38/66/38 48/84/48 24/52/24 
f 37/65/37 27/85/27 26/86/26 38/66/38 
f 39/67/39 28/87/28 27/88/27 37/68/37 
f 40/69/40 29/89/29 28/90/28 39/70/39 
f 41/71/41 30/91/30 29/89/29 40/69/40 
f 42/72/42 31/92/31 30/93/30 41/73/41 
f 43/74/43 32/94/32 31/95/31 42/75/42 
f 44/76/44 33/96/33 32/94/32 43/74/43 
f 45/77/45 34/97/34 33/98/33 44/78/44 
f 46/79/46 35/99/35 34/100/34 45/80/45 
f 47/81/47 36/101/36 35/99/35 46/79/46 
f 48/82/48 25/102/25 36/103/36 47/83/47 
f 38/66/38 26/86/26 25/104/25 48/84/48 
# 38 polygons

#
# object Cylinder002
#

v  0.4528 3.6694 0.2614
v  0.2614 3.6694 0.4528
v  -0.0000 3.6694 0.5228
v  -0.2614 3.6694 0.4528
v  -0.4528 3.6694 0.2614
v  -0.5228 3.6694 -0.0000
v  -0.4528 3.6694 -0.2614
v  -0.2614 3.6694 -0.4528
v  -0.0000 3.6694 -0.5228
v  0.2614 3.6694 -0.4528
v  0.4528 3.6694 -0.2614
v  0.5228 3.6694 0.0000
v  0.5275 4.1492 -0.3046
v  0.6091 4.1492 -0.0000
v  0.3046 4.1492 -0.5275
v  -0.0000 4.1492 -0.6091
v  -0.3046 4.1492 -0.5275
v  -0.5275 4.1492 -0.3046
v  -0.6091 4.1492 -0.0000
v  -0.5275 4.1492 0.3046
v  -0.3046 4.1492 0.5275
v  -0.0000 4.1492 0.6091
v  0.3046 4.1492 0.5275
v  0.5275 4.1492 0.3046
# 24 vertices

vn 0.5946 -0.7271 0.3433
vn 0.3433 -0.7271 0.5946
vn -0.0000 -0.7271 0.6865
vn -0.3433 -0.7271 0.5946
vn -0.5946 -0.7271 0.3433
vn -0.6865 -0.7271 -0.0000
vn -0.5946 -0.7271 -0.3433
vn -0.3433 -0.7271 -0.5946
vn 0.0000 -0.7271 -0.6865
vn 0.3433 -0.7271 -0.5946
vn 0.5946 -0.7271 -0.3433
vn 0.6865 -0.7271 0.0000
vn 0.7086 0.5750 -0.4091
vn 0.8182 0.5750 0.0000
vn 0.4091 0.5750 -0.7086
vn 0.0000 0.5750 -0.8182
vn -0.4091 0.5750 -0.7086
vn -0.7086 0.5750 -0.4091
vn -0.8182 0.5750 -0.0000
vn -0.7086 0.5750 0.4091
vn -0.4091 0.5750 0.7086
vn -0.0000 0.5750 0.8182
vn 0.4091 0.5750 0.7086
vn 0.7086 0.5750 0.4091
# 24 vertex normals

vt 1.4568 0.5462 0.0000
vt 1.4164 0.5469 0.0000
vt 1.3812 0.5273 0.0000
vt 1.3604 0.4927 0.0000
vt 1.3597 0.4524 0.0000
vt 1.3792 0.4171 0.0000
vt 1.4138 0.3963 0.0000
vt 1.4542 0.3956 0.0000
vt 1.4895 0.4151 0.0000
vt 1.5102 0.4497 0.0000
vt 1.5109 0.4901 0.0000
vt 1.4914 0.5254 0.0000
vt 1.0676 0.4461 0.0000
vt 1.0676 0.4851 0.0000
vt 1.0056 0.4915 0.0000
vt 1.0056 0.4461 0.0000
vt 1.0090 0.5598 0.0000
vt 1.0493 0.5598 0.0000
vt 1.0526 0.6230 0.0000
vt 1.0056 0.6230 0.0000
vt 1.7314 0.0676 0.0000
vt 1.6924 0.0676 0.0000
vt 1.6924 0.0056 0.0000
vt 1.7378 0.0056 0.0000
vt 1.6534 0.0676 0.0000
vt 1.6470 0.0056 0.0000
vt 1.5649 0.0493 0.0000
vt 1.5649 0.0090 0.0000
vt 1.6281 0.0056 0.0000
vt 1.6281 0.0526 0.0000
vt 1.3148 0.9343 0.0000
vt 1.3538 0.9343 0.0000
vt 1.3538 0.9963 0.0000
vt 1.3084 0.9963 0.0000
vt 1.3927 0.9343 0.0000
vt 1.3992 0.9963 0.0000
vt 1.2109 0.9934 0.0000
vt 1.2109 0.9531 0.0000
vt 1.2741 0.9497 0.0000
vt 1.2741 0.9967 0.0000
vt 1.4110 0.9931 0.0000
vt 1.4110 0.9541 0.0000
vt 1.4729 0.9541 0.0000
vt 1.4729 0.9995 0.0000
vt 1.4110 0.9151 0.0000
vt 1.4729 0.9087 0.0000
vt 1.0090 0.3186 0.0000
vt 1.0493 0.3186 0.0000
vt 1.0526 0.3818 0.0000
vt 1.0056 0.3818 0.0000
vt 1.0676 0.4071 0.0000
vt 1.0056 0.4007 0.0000
vt 1.2360 0.4161 0.0000
vt 1.2830 0.4169 0.0000
vt 1.3233 0.4411 0.0000
vt 1.3461 0.4823 0.0000
vt 1.3452 0.5293 0.0000
vt 1.3210 0.5696 0.0000
vt 1.2799 0.5924 0.0000
vt 1.2329 0.5915 0.0000
vt 1.1926 0.5673 0.0000
vt 1.1698 0.5262 0.0000
vt 1.1706 0.4792 0.0000
vt 1.1949 0.4389 0.0000
# 64 texture coords

o Cylinder002
g Cylinder002
s 1
f 49/105/49 50/106/50 51/107/51 52/108/52 53/109/53 54/110/54 55/111/55 56/112/56 57/113/57 58/114/58 59/115/59 60/116/60 
s 8
f 60/117/60 59/118/59 61/119/61 62/120/62 
f 59/121/59 58/122/58 63/123/63 61/124/61 
f 58/125/58 57/126/57 64/127/64 63/128/63 
f 57/126/57 56/129/56 65/130/65 64/127/64 
f 56/131/56 55/132/55 66/133/66 65/134/65 
f 55/135/55 54/136/54 67/137/67 66/138/66 
f 54/136/54 53/139/53 68/140/68 67/137/67 
f 53/141/53 52/142/52 69/143/69 68/144/68 
f 52/145/52 51/146/51 70/147/70 69/148/69 
f 51/146/51 50/149/50 71/150/71 70/147/70 
f 50/151/50 49/152/49 72/153/72 71/154/71 
f 49/155/49 60/117/60 62/120/62 72/156/72 
s 1
f 72/157/72 62/158/62 61/159/61 63/160/63 64/161/64 65/162/65 66/163/66 67/164/67 68/165/68 69/166/69 70/167/70 71/168/71 
# 14 polygons

#
# object Cylinder003
#

v  0.3649 3.9848 0.2107
v  0.2107 3.9848 0.3649
v  -0.0000 3.9848 0.4214
v  -0.2107 3.9848 0.3649
v  -0.3649 3.9848 0.2107
v  -0.4214 3.9848 -0.0000
v  -0.3649 3.9848 -0.2107
v  -0.2107 3.9848 -0.3649
v  -0.0000 3.9848 -0.4214
v  0.2107 3.9848 -0.3649
v  0.3649 3.9848 -0.2107
v  0.4214 3.9848 -0.0000
v  0.4084 4.5206 -0.2358
v  0.4716 4.5206 -0.0000
v  0.2358 4.5206 -0.4084
v  -0.0000 4.5206 -0.4716
v  -0.2358 4.5206 -0.4084
v  -0.4084 4.5206 -0.2358
v  -0.4716 4.5206 -0.0000
v  -0.4084 4.5206 0.2358
v  -0.2358 4.5206 0.4084
v  -0.0000 4.5206 0.4716
v  0.2358 4.5206 0.4084
v  0.4084 4.5206 0.2358
# 24 vertices

vn 0.6102 -0.7096 0.3523
vn 0.3523 -0.7096 0.6102
vn -0.0000 -0.7096 0.7046
vn -0.3523 -0.7096 0.6102
vn -0.6102 -0.7096 0.3523
vn -0.7046 -0.7096 -0.0000
vn -0.6102 -0.7096 -0.3523
vn -0.3523 -0.7096 -0.6102
vn 0.0000 -0.7096 -0.7046
vn 0.3523 -0.7096 -0.6102
vn 0.6102 -0.7096 -0.3523
vn 0.7046 -0.7096 0.0000
vn 0.6965 0.5943 -0.4021
vn 0.8042 0.5943 0.0000
vn 0.4021 0.5943 -0.6965
vn -0.0000 0.5943 -0.8042
vn -0.4021 0.5943 -0.6965
vn -0.6965 0.5943 -0.4021
vn -0.8042 0.5943 -0.0000
vn -0.6965 0.5943 0.4021
vn -0.4021 0.5943 0.6965
vn -0.0000 0.5943 0.8042
vn 0.4021 0.5943 0.6965
vn 0.6965 0.5943 0.4021
# 24 vertex normals

vt 0.3184 0.5639 0.0000
vt 0.3178 0.5306 0.0000
vt 0.3340 0.5015 0.0000
vt 0.3625 0.4843 0.0000
vt 0.3958 0.4837 0.0000
vt 0.4249 0.4999 0.0000
vt 0.4421 0.5284 0.0000
vt 0.4426 0.5617 0.0000
vt 0.4265 0.5908 0.0000
vt 0.3980 0.6080 0.0000
vt 0.3647 0.6085 0.0000
vt 0.3356 0.5924 0.0000
vt 0.0410 0.0050 0.0000
vt 0.0731 0.0050 0.0000
vt 0.0770 0.0540 0.0000
vt 0.0410 0.0540 0.0000
vt 0.9597 0.6259 0.0000
vt 0.9930 0.6259 0.0000
vt 0.9950 0.6755 0.0000
vt 0.9577 0.6755 0.0000
vt 0.4260 0.0050 0.0000
vt 0.4581 0.0050 0.0000
vt 0.4581 0.0540 0.0000
vt 0.4221 0.0540 0.0000
vt 0.4903 0.0050 0.0000
vt 0.4941 0.0540 0.0000
vt 0.8697 0.0050 0.0000
vt 0.9030 0.0050 0.0000
vt 0.9049 0.0546 0.0000
vt 0.8677 0.0546 0.0000
vt 0.0136 0.4458 0.0000
vt 0.0457 0.4458 0.0000
vt 0.0457 0.4948 0.0000
vt 0.0097 0.4948 0.0000
vt 0.0779 0.4458 0.0000
vt 0.0817 0.4948 0.0000
vt 0.9171 0.0050 0.0000
vt 0.9504 0.0050 0.0000
vt 0.9523 0.0546 0.0000
vt 0.9151 0.0546 0.0000
vt 0.7862 0.0050 0.0000
vt 0.8183 0.0050 0.0000
vt 0.8183 0.0540 0.0000
vt 0.7824 0.0540 0.0000
vt 0.8505 0.0050 0.0000
vt 0.8543 0.0540 0.0000
vt 0.9455 0.0666 0.0000
vt 0.9788 0.0666 0.0000
vt 0.9808 0.1162 0.0000
vt 0.9435 0.1162 0.0000
vt 0.0088 0.0050 0.0000
vt 0.0050 0.0540 0.0000
vt 0.6705 0.9220 0.0000
vt 0.6333 0.9214 0.0000
vt 0.6013 0.9022 0.0000
vt 0.5833 0.8696 0.0000
vt 0.5839 0.8324 0.0000
vt 0.6031 0.8004 0.0000
vt 0.6357 0.7824 0.0000
vt 0.6730 0.7830 0.0000
vt 0.7049 0.8022 0.0000
vt 0.7230 0.8348 0.0000
vt 0.7223 0.8720 0.0000
vt 0.7031 0.9040 0.0000
# 64 texture coords

o Cylinder003
g Cylinder003
s 1
f 73/169/73 74/170/74 75/171/75 76/172/76 77/173/77 78/174/78 79/175/79 80/176/80 81/177/81 82/178/82 83/179/83 84/180/84 
s 8
f 84/181/84 83/182/83 85/183/85 86/184/86 
f 83/185/83 82/186/82 87/187/87 85/188/85 
f 82/189/82 81/190/81 88/191/88 87/192/87 
f 81/190/81 80/193/80 89/194/89 88/191/88 
f 80/195/80 79/196/79 90/197/90 89/198/89 
f 79/199/79 78/200/78 91/201/91 90/202/90 
f 78/200/78 77/203/77 92/204/92 91/201/91 
f 77/205/77 76/206/76 93/207/93 92/208/92 
f 76/209/76 75/210/75 94/211/94 93/212/93 
f 75/210/75 74/213/74 95/214/95 94/211/94 
f 74/215/74 73/216/73 96/217/96 95/218/95 
f 73/219/73 84/181/84 86/184/86 96/220/96 
s 1
f 96/221/96 86/222/86 85/223/85 87/224/87 88/225/88 89/226/89 90/227/90 91/228/91 92/229/92 93/230/93 94/231/94 95/232/95 
# 14 polygons

#
# object potion
#

v  1.2138 0.1508 0.7008
v  0.7008 0.1508 1.2139
v  -0.0000 0.1508 1.4016
v  -0.7008 0.1508 1.2138
v  -1.2138 0.1508 0.7008
v  -1.4016 0.1508 -0.0000
v  -1.2138 0.1508 -0.7008
v  -0.7008 0.1508 -1.2138
v  -0.0000 0.1508 -1.4016
v  0.7008 0.1508 -1.2138
v  1.2138 0.1508 -0.7008
v  1.4016 0.1508 -0.0000
v  1.2694 0.3477 -0.7329
v  1.4658 0.3477 -0.0000
v  0.7329 0.3477 -1.2694
v  -0.0000 0.3477 -1.4658
v  -0.7329 0.3477 -1.2694
v  -1.2694 0.3477 -0.7329
v  -1.4658 0.3477 -0.0000
v  -1.2694 0.3477 0.7329
v  -0.7329 0.3477 1.2694
v  -0.0000 0.3477 1.4658
v  0.7329 0.3477 1.2694
v  1.2694 0.3477 0.7329
v  0.8307 2.0263 -0.4796
v  0.9592 2.0263 -0.0000
v  0.4796 2.0263 -0.8307
v  -0.0000 2.0263 -0.9592
v  -0.4796 2.0263 -0.8307
v  -0.8307 2.0263 -0.4796
v  -0.9592 2.0263 -0.0000
v  -0.8307 2.0263 0.4796
v  -0.4796 2.0263 0.8307
v  -0.0000 2.0263 0.9592
v  0.4796 2.0263 0.8307
v  0.8307 2.0263 0.4796
# 36 vertices

vn 0.5426 -0.7794 0.3133
vn 0.3133 -0.7794 0.5426
vn -0.0000 -0.7794 0.6265
vn -0.3133 -0.7794 0.5426
vn -0.5426 -0.7794 0.3133
vn -0.6265 -0.7794 -0.0000
vn -0.5426 -0.7794 -0.3133
vn -0.3133 -0.7794 -0.5426
vn 0.0000 -0.7794 -0.6265
vn 0.3133 -0.7794 -0.5426
vn 0.5426 -0.7794 -0.3133
vn 0.6265 -0.7794 0.0000
vn 0.8660 -0.0117 -0.5000
vn 0.9999 -0.0117 0.0000
vn 0.5000 -0.0117 -0.8660
vn -0.0000 -0.0117 -0.9999
vn -0.5000 -0.0117 -0.8660
vn -0.8660 -0.0117 -0.5000
vn -0.9999 -0.0117 -0.0000
vn -0.8660 -0.0117 0.5000
vn -0.5000 -0.0117 0.8660
vn -0.0000 -0.0117 0.9999
vn 0.5000 -0.0117 0.8660
vn 0.8660 -0.0117 0.5000
vn 0.5512 0.7713 -0.3182
vn 0.6364 0.7713 0.0000
vn 0.3182 0.7713 -0.5512
vn -0.0000 0.7713 -0.6364
vn -0.3182 0.7713 -0.5512
vn -0.5512 0.7713 -0.3182
vn -0.6364 0.7713 -0.0000
vn -0.5512 0.7713 0.3182
vn -0.3182 0.7713 0.5512
vn -0.0000 0.7713 0.6364
vn 0.3182 0.7713 0.5512
vn 0.5512 0.7713 0.3182
# 36 vertex normals

vt 0.0751 0.4349 0.0000
vt 0.0073 0.3220 0.0000
vt 0.0050 0.1903 0.0000
vt 0.0689 0.0751 0.0000
vt 0.1818 0.0073 0.0000
vt 0.3135 0.0050 0.0000
vt 0.4287 0.0689 0.0000
vt 0.4965 0.1818 0.0000
vt 0.4988 0.3135 0.0000
vt 0.4349 0.4287 0.0000
vt 0.3220 0.4965 0.0000
vt 0.1903 0.4988 0.0000
vt 0.5978 0.6222 0.0000
vt 0.4706 0.6222 0.0000
vt 0.4648 0.5912 0.0000
vt 0.5978 0.5912 0.0000
vt 0.7350 0.9787 0.0000
vt 0.7350 0.8470 0.0000
vt 0.7679 0.8440 0.0000
vt 0.7679 0.9817 0.0000
vt 0.9763 0.3994 0.0000
vt 0.8491 0.3994 0.0000
vt 0.8491 0.3684 0.0000
vt 0.9821 0.3684 0.0000
vt 0.7218 0.3994 0.0000
vt 0.7160 0.3684 0.0000
vt 0.0050 0.9787 0.0000
vt 0.0050 0.8470 0.0000
vt 0.0379 0.8440 0.0000
vt 0.0379 0.9817 0.0000
vt 0.7218 0.4126 0.0000
vt 0.8491 0.4126 0.0000
vt 0.8491 0.4436 0.0000
vt 0.7160 0.4436 0.0000
vt 0.9763 0.4126 0.0000
vt 0.9821 0.4436 0.0000
vt 0.9855 0.7190 0.0000
vt 0.9855 0.8507 0.0000
vt 0.9526 0.8538 0.0000
vt 0.9526 0.7160 0.0000
vt 0.5085 0.0050 0.0000
vt 0.6358 0.0050 0.0000
vt 0.6358 0.0360 0.0000
vt 0.5027 0.0360 0.0000
vt 0.7630 0.0050 0.0000
vt 0.7688 0.0360 0.0000
vt 0.7248 0.6384 0.0000
vt 0.7248 0.7702 0.0000
vt 0.6919 0.7732 0.0000
vt 0.6919 0.6354 0.0000
vt 0.7251 0.6222 0.0000
vt 0.7309 0.5912 0.0000
vt 0.5108 0.3273 0.0000
vt 0.5978 0.3273 0.0000
vt 0.9855 0.8678 0.0000
vt 0.9855 0.9579 0.0000
vt 0.8491 0.1045 0.0000
vt 0.9361 0.1045 0.0000
vt 0.7620 0.1045 0.0000
vt 0.2556 0.8678 0.0000
vt 0.2556 0.9579 0.0000
vt 0.8491 0.7075 0.0000
vt 0.7620 0.7075 0.0000
vt 0.9361 0.7075 0.0000
vt 0.7350 0.8299 0.0000
vt 0.7350 0.7398 0.0000
vt 0.6358 0.2998 0.0000
vt 0.5487 0.2998 0.0000
vt 0.7228 0.2998 0.0000
vt 0.4743 0.7494 0.0000
vt 0.4743 0.6592 0.0000
vt 0.6849 0.3273 0.0000
vt 0.0066 0.6284 0.0000
vt 0.0530 0.5511 0.0000
vt 0.1318 0.5074 0.0000
vt 0.2220 0.5090 0.0000
vt 0.2992 0.5554 0.0000
vt 0.3429 0.6343 0.0000
vt 0.3413 0.7244 0.0000
vt 0.2949 0.8017 0.0000
vt 0.2161 0.8454 0.0000
vt 0.1260 0.8438 0.0000
vt 0.0487 0.7974 0.0000
vt 0.0050 0.7185 0.0000
# 84 texture coords

o potion
g potion
s 1
f 97/233/97 98/234/98 99/235/99 100/236/100 101/237/101 102/238/102 103/239/103 104/240/104 105/241/105 106/242/106 107/243/107 108/244/108 
s 8
f 108/245/108 107/246/107 109/247/109 110/248/110 
f 107/249/107 106/250/106 111/251/111 109/252/109 
f 106/253/106 105/254/105 112/255/112 111/256/111 
f 105/254/105 104/257/104 113/258/113 112/255/112 
f 104/259/104 103/260/103 114/261/114 113/262/113 
f 103/263/103 102/264/102 115/265/115 114/266/114 
f 102/264/102 101/267/101 116/268/116 115/265/115 
f 101/269/101 100/270/100 117/271/117 116/272/116 
f 100/273/100 99/274/99 118/275/118 117/276/117 
f 99/274/99 98/277/98 119/278/119 118/275/118 
f 98/279/98 97/280/97 120/281/120 119/282/119 
f 97/283/97 108/245/108 110/248/110 120/284/120 
f 109/247/109 121/285/121 122/286/122 110/248/110 
f 111/251/111 123/287/123 121/288/121 109/252/109 
f 112/255/112 124/289/124 123/290/123 111/256/111 
f 113/258/113 125/291/125 124/289/124 112/255/112 
f 114/261/114 126/292/126 125/293/125 113/262/113 
f 115/265/115 127/294/127 126/295/126 114/266/114 
f 116/268/116 128/296/128 127/294/127 115/265/115 
f 117/271/117 129/297/129 128/298/128 116/272/116 
f 118/275/118 130/299/130 129/300/129 117/276/117 
f 119/278/119 131/301/131 130/299/130 118/275/118 
f 120/281/120 132/302/132 131/303/131 119/282/119 
f 110/248/110 122/286/122 132/304/132 120/284/120 
s 1
f 122/305/122 121/306/121 123/307/123 124/308/124 125/309/125 126/310/126 127/311/127 128/312/128 129/313/129 130/314/130 131/315/131 132/316/132 
# 26 polygons

